<?xml version="1.0" encoding="utf-8"?>
<!DOCTYPE svg PUBLIC "-//W3C//DTD SVG 1.0//EN" "http://www.w3.org/TR/2001/REC-SVG-20010904/DTD/svg10.dtd">
<svg version="1.0" xmlns="http://www.w3.org/2000/svg" width="512px" height="512px" viewBox="0 0 512 512" preserveAspectRatio="xMidYMid meet">
 <g fill="#f8ce3e">
  <path d="M229 377.7 c0 -2.6 3.9 -11.6 14.4 -32.8 11.2 -22.6 14.3 -29.6 13.5 -31 -2.2 -4.2 -0.9 -8.2 8 -24.3 4.9 -8.9 11.6 -21 14.9 -27.1 5.3 -9.7 6.3 -11 8.8 -11.3 2.8 -0.3 2.9 -0.5 2.6 -4.6 -0.2 -2.4 0.1 -5.3 0.7 -6.5 0.7 -1.2 0.9 -2.1 0.6 -2.1 -0.8 0 -3.6 2.8 -19.1 19 -7.1 7.4 -21.9 22.8 -33 34.2 l-20.2 20.7 -20.7 3.1 c-27.6 4 -25.5 4.2 -25.5 -2.6 0 -3 1 -10.1 2.1 -15.7 1.9 -8.7 2 -11 1 -15.8 -1.7 -8.5 -1.4 -12.5 2.1 -24.1 l3.1 -10.8 3.7 0 c2 0 5.9 0.6 8.6 1.4 7.6 2.2 9.8 2.6 8.8 1.7 -0.5 -0.5 -4.8 -1.9 -9.6 -3.1 l-8.8 -2.3 0 -3.5 c0 -2.7 13.8 -59.6 21.3 -87.7 1.7 -6.2 5.2 -8.5 14.2 -9.2 l6.3 -0.6 6.6 5.9 c5 4.5 6.6 6.5 6.6 8.6 0 2.4 -7.8 36.5 -12.9 56.3 -1.8 7.3 -1.9 8.1 -0.4 9.7 1.2 1.4 1.5 3.1 1 8 l-0.5 6.3 6.6 -7.2 c5 -5.4 7.5 -7.3 9.7 -7.5 2.6 -0.3 3.1 -0.8 3.6 -3.9 0.4 -2.5 2.2 -5.5 5.5 -9.2 4.2 -4.7 47.1 -49.9 70.2 -74 l7.5 -7.7 12.1 -4 c21.7 -7 36.6 -11.1 39.4 -10.8 5.1 0.6 4.2 4.7 -5.4 24.4 -10.5 21.8 -33.2 69.7 -42.4 89.4 -15.7 33.8 -14.6 32 -18.8 32.1 -2 0 -3.1 0.3 -2.4 0.6 2.7 1.1 1.3 8.3 -3.3 16.9 -2.4 4.6 -4.2 8.4 -3.8 8.4 1 0 38.6 -31.8 67.6 -57.2 6.8 -6 8.2 -6.8 11.7 -6.8 3.9 0 4 -0.1 4 -3.3 0 -3.1 1.3 -4.5 16.1 -17.3 37.7 -32.4 40 -34.3 43.2 -34.9 14 -2.4 34.5 -5.5 36.3 -5.5 2.5 0 3.4 1.7 3.4 6.3 0 2.7 -1.3 4.5 -8.7 11.6 -8 7.6 -41.7 39.3 -59.9 56.4 -5.7 5.3 -7.8 6.7 -10.3 6.7 -2.8 0 -3.1 0.3 -3.1 3 0 2.2 -1.1 3.9 -4.2 6.8 -2.4 2.2 -16 14.6 -30.3 27.7 -14.3 13.2 -40.2 36.5 -57.5 51.9 -17.3 15.5 -36.2 32.3 -41.9 37.5 l-10.3 9.4 -7.6 1.3 c-4.1 0.8 -11.5 1.7 -16.4 2 l-8.8 0.7 0 -3.6z m25.6 -16.8 c0.3 -0.6 0.1 -1.6 -0.5 -2.2 -0.9 -0.9 -1.4 -0.8 -2.1 0.3 -0.9 1.5 -0.4 3 1 3 0.5 0 1.2 -0.5 1.6 -1.1z m-63.8 -57.2 c0.4 -2.2 -2.4 -3.3 -4.3 -1.7 -1.2 1 -1.3 1.6 -0.4 2.7 1.6 1.8 4.3 1.3 4.7 -1z m114.7 -47.7 c-3.3 -1.6 -6.4 -2.9 -7 -2.9 -1.3 0.1 10.7 5.7 12 5.7 0.6 0 -1.7 -1.3 -5 -2.8z m57.5 -120.5 c0 -1.9 -3 -2.7 -4.7 -1.4 -1.1 1 -1.1 1.5 0.3 3 1.3 1.4 2 1.6 3.1 0.8 0.7 -0.6 1.3 -1.7 1.3 -2.4z"/>
  <path d="M87.2 299.2 c-4.5 -4 -5.2 -5.2 -5.2 -8.2 0.1 -4.7 2 -7 5.9 -7 2.5 0 4.6 1.2 9.2 5.2 5.4 4.8 5.9 5.6 5.9 9.4 0 4.7 -0.9 5.4 -6.8 5.4 -3 -0.1 -4.7 -1 -9 -4.8z"/>
  <path d="M75.9 209.6 c-3.2 -1.6 -3.6 -3.6 -0.7 -3.6 3.8 0 6.8 1.1 6.8 2.5 0 1.8 -3.4 2.5 -6.1 1.1z"/>
 </g>
 <g fill="#2ea7d9">
  <path d="M204.7 409.9 c-4.2 -2.2 -9 -8.3 -10.8 -13.6 -2.4 -7.4 -1.2 -10.3 17.4 -41.4 9.7 -16.2 18.5 -30.7 19.6 -32.4 4 -5.8 2 -4.8 -5.1 2.7 l-7.3 7.5 -20.5 6.2 c-11.3 3.4 -21.8 6.1 -23.3 6.1 -3.5 0 -5.9 -1.3 -11.7 -6 -6.5 -5.3 -6.5 -5.3 -10.1 -2 -3.8 3.4 -9 4.7 -12.5 3.1 -3.6 -1.6 -6.5 -6.9 -6.2 -11.3 0.1 -2 -0.1 -4 -0.4 -4.3 -0.3 -0.4 -6.7 6.4 -14.2 14.9 -7.5 8.6 -14.5 16 -15.6 16.6 -2.8 1.5 -7.3 1.2 -9.9 -0.7 -2.6 -1.7 -2.8 -1.5 -20.8 17.8 -3.6 3.9 -6.1 5.2 -18.9 10.3 -17 6.7 -20.7 6.9 -27 1.4 -5.7 -5 -6.3 -7.2 -7.4 -25.7 -1.3 -19.3 -1.2 -19.8 6.5 -28 9.4 -10.2 57.7 -65.7 58.2 -66.9 0.3 -0.7 0.1 -1.8 -0.4 -2.3 -0.6 -0.6 -3.2 1.6 -7.2 6.1 -8.1 9.1 -10.3 9.3 -19 2 -9.4 -7.8 -9.2 -10.1 2.1 -22.5 3.5 -3.8 11.2 -12.7 17.2 -19.7 10 -11.9 11 -12.8 14.2 -12.8 2.8 0 4.5 1 8.4 4.6 4.2 3.9 5.2 4.5 6.5 3.4 0.8 -0.7 1.5 -1.6 1.5 -2.1 0 -0.5 -3.7 -4.5 -8.1 -8.8 -7.5 -7.2 -8.1 -8.1 -7.5 -10.7 0.4 -1.6 1.5 -3.8 2.5 -4.9 1 -1.1 9.4 -10.5 18.6 -21 53.8 -60.8 53.5 -60.4 58.8 -60.5 0.9 0 6.6 4.3 12.6 9.5 6.1 5.2 11.6 9.5 12.4 9.5 0.8 0 6.6 -1.8 13 -4 17.8 -6.2 19.7 -5.7 32.1 7.6 6 6.5 8.3 8.3 9.7 7.9 1.5 -0.5 1.9 -0.1 1.9 1.9 0 2.3 -0.4 2.6 -3.3 2.6 -2.9 0 -4.5 -1.2 -12.5 -9.5 -4.9 -5.2 -10.1 -9.7 -11.4 -10 -1.4 -0.4 -6.6 1 -13.6 3.5 -6.9 2.4 -13.1 4 -15.8 4 -4.3 0 -5.1 -0.5 -14.9 -9 -5.7 -4.9 -10.8 -9 -11.5 -9 -0.6 0 -2.3 1.2 -3.7 2.8 -3.2 3.4 -64.9 72.6 -68.3 76.6 l-2.4 2.9 7.7 7.2 c7.1 6.7 7.7 7.5 7.7 11.2 0 4.8 -2.3 7.3 -6.8 7.3 -2.3 0 -4.5 -1.2 -8.3 -4.6 -5 -4.4 -5.2 -4.5 -6.9 -2.7 -5.1 5.3 -34 39.6 -34 40.3 0 0.5 2.6 3 5.7 5.6 l5.8 4.6 6 -6.6 c5.1 -5.6 6.5 -6.6 9.3 -6.6 2.5 0 3.2 0.4 3.2 2 0 1.1 0.5 2 1 2 0.6 0 1 1.5 1 3.3 0 2.9 -3.2 7 -26.2 33.3 -14.3 16.4 -28.3 32.3 -31 35.3 -7.8 8.6 -7.9 8.8 -6.8 25 1 14.6 1.9 17.8 6.2 21.8 5 4.6 6.3 4.6 21.6 -1.5 l14.2 -5.6 14.8 -16.2 c8.1 -8.9 20.8 -23 28.2 -31.4 7.4 -8.4 17.6 -19.9 22.5 -25.5 5 -5.6 12.3 -14 16.3 -18.8 6.6 -7.8 7.7 -8.7 10.8 -8.7 3.3 0 3.4 0.1 3.4 4.3 0 2.3 -2 11.3 -4.5 19.9 -5.7 20.2 -6 22.2 -4.5 25.9 0.8 1.7 4.4 5.4 8.7 8.7 13.7 10.5 10.7 10.1 30 4.2 25.4 -7.7 24.1 -7 33.3 -17 7.2 -8 8.6 -9 11.6 -9 3.3 0 3.4 0.1 3.4 3.8 0 2.7 -1.3 5.7 -5 11.5 -8.9 13.9 -36.2 60.1 -37.2 62.9 -1.2 3.5 1.6 10.2 6.5 15 5.3 5.3 7.4 5.5 17.5 1.2 21.1 -9 33.8 -15.5 38.2 -19.8 2.5 -2.4 8.4 -7.7 13.1 -11.7 12.8 -11 64.6 -56.8 87.7 -77.6 16.7 -15.1 20.8 -18.3 23.2 -18.3 2.6 0 3 -0.4 3.1 -2.7 0 -2.9 0.9 -3.6 33.8 -32.4 27.2 -23.7 28.6 -24.9 31.4 -24.9 2.3 0 2.7 -0.4 2.7 -2.7 0 -2.3 3.4 -5.9 20 -21.1 11 -10.1 20.8 -19.5 21.7 -20.8 3.7 -5.7 0.6 -16.9 -5.8 -21.5 -3.6 -2.6 -3.6 -2.6 -32.9 2.7 -8 1.5 -16.2 2.9 -18.2 3.1 l-3.8 0.5 0 -3.7 c0 -3.7 0.1 -3.8 1.9 -2.1 1.2 1.1 2.5 1.5 3.2 1 0.7 -0.4 6.3 -1.5 12.3 -2.5 6.1 -1 16.2 -2.7 22.5 -3.9 l11.5 -2 4.5 2.2 c5.1 2.5 8.5 7 10.2 13.2 1.3 5 0.6 12.6 -1.6 16.4 -0.9 1.5 -10.6 10.8 -21.5 20.7 l-19.8 18 7.4 7.8 c5.8 6.2 7.4 8.5 7.4 10.9 0 2.6 -4 7.1 -30.2 33.7 -16.6 16.8 -31.1 31.1 -32.2 31.8 -4.6 2.7 -7.5 1.6 -14.7 -5.4 l-6.9 -6.6 -2.1 2.9 c-1.2 1.6 -8.5 9.2 -16.3 16.9 -26.3 26.2 -29.3 29.5 -27.4 30.6 0.9 0.5 2.6 2.5 3.8 4.5 3.1 4.9 2.5 14.2 -1.1 18 -6.9 7.4 -17 7.3 -23.4 -0.2 l-3.1 -3.5 -16.4 16.7 c-17.3 17.5 -20.8 20.4 -25.1 20.4 -3.3 0 -7.8 -3.4 -9.3 -7.2 l-1.2 -2.8 -3.1 3.8 c-3.6 4.4 -11.3 8.7 -33.7 18.6 -16.4 7.3 -20.4 7.9 -26.9 4.5z"/>
  <path d="M355.2 341.3 c-0.7 -0.3 -1.7 -1.4 -2.3 -2.5 -0.8 -1.5 -0.7 -2.4 0.7 -3.9 0.9 -1 2.2 -1.9 2.9 -1.9 1.9 0 4.8 3.8 4.2 5.4 -0.7 1.8 -3.8 3.5 -5.5 2.9z"/>
  <path d="M29 304 c-8 -8 -1.7 -19.9 9 -17 2.8 0.8 4.2 1.9 5.4 4.4 0.9 1.9 1.6 4.1 1.6 5.1 0 2.5 -2.8 7.3 -4.9 8.5 -3.3 1.7 -8.9 1.2 -11.1 -1z"/>
  <path d="M94 302.6 c0 -1.8 0.5 -2.3 1.8 -2 0.9 0.2 2.4 0 3.2 -0.6 1.2 -0.8 1.3 -1.3 0.2 -3 -1.1 -1.9 -1 -2 2.3 -2 3.4 0 3.5 0.1 3.5 4 0 4.5 -1.8 6 -7.4 6 -3.1 0 -3.6 -0.3 -3.6 -2.4z"/>
  <path d="M81 289.7 c0 -4.2 1.5 -5.7 5.7 -5.7 2.7 0 3.3 0.4 3.3 2.1 0 1.2 -0.4 1.7 -1.1 1.4 -1.3 -0.9 -4 2.5 -3.4 4.3 0.3 0.7 -0.5 1.2 -2 1.2 -2.2 0 -2.5 -0.5 -2.5 -3.3z"/>
  <path d="M454 272.8 c-1.5 -1.6 -1.9 -3 -1.5 -4.8 1.8 -7.4 12.5 -6.3 12.5 1.3 0 5.5 -7 7.8 -11 3.5z"/>
  <path d="M279.6 244.8 c7.1 -8.6 8.4 -9.4 8.4 -5 0 4.4 -2.6 7.2 -6.7 7.2 l-3.6 0 1.9 -2.2z"/>
  <path d="M242 224.3 c0 -3.1 3.4 -6.3 6.6 -6.3 1.5 0 2.3 0.4 1.9 1.1 -0.4 0.5 0.1 1.9 1.1 3 1.4 1.5 1.4 1.9 0.3 1.9 -0.8 0 -2.1 0.6 -2.7 1.3 -0.7 0.6 -2.6 1.2 -4.2 1.2 -2.4 0 -3 -0.4 -3 -2.2z"/>
  <path d="M279.9 147.6 c0.9 -1.1 0.3 -1.8 -3.4 -3.6 -6.6 -3.2 -9 -7.1 -9 -14.6 0 -7.6 3.2 -12.3 10 -14.9 8.4 -3.3 16.6 -0.2 20.6 7.7 1.7 3.2 2.3 3.7 3.5 2.8 1.2 -1 1.4 -0.7 1.4 1.9 0 2.3 -1.4 4.7 -5.9 9.9 -8 9.3 -11.6 12.2 -15.3 12.2 -2.5 0 -2.8 -0.3 -1.9 -1.4z"/>
  <path d="M412 114.1 c0 -1.6 0.9 -4.8 1.9 -7.1 1.8 -4 1.8 -4.6 0.4 -8.8 -1.8 -5.1 -8 -11.8 -11.9 -12.8 -2.7 -0.7 -13.4 3.3 -48.9 18.2 -8.8 3.7 -17.9 6.9 -20.2 7.1 -4.3 0.5 -4.3 0.5 -4.3 -2.7 0 -2.7 0.2 -3.1 1.5 -2 1.1 1 4.5 -0.1 17.7 -5.5 40.7 -16.9 48.9 -19.7 54 -19.3 12.5 1.2 21.4 18.4 15.4 29.8 -1.3 2.3 -1.5 3.5 -0.7 3.8 2.2 0.7 1 2.2 -1.9 2.2 -2.6 0 -3 -0.3 -3 -2.9z"/>
  <path d="M302.7 108.6 c-0.7 -1.9 1.8 -4 3.9 -3.2 0.8 0.3 1.4 1.4 1.2 2.3 -0.4 2.2 -4.3 2.9 -5.1 0.9z"/>
 </g>
 <g fill="#80bf4d">
  <path d="M34.6 358.9 c-0.6 -11.5 -0.4 -14.5 0.8 -16.3 0.8 -1.1 7.4 -9.1 14.8 -17.6 7.3 -8.6 19.6 -23.4 27.3 -33 7.7 -9.6 20.7 -25.4 28.9 -35 8.1 -9.6 24.1 -28.5 35.5 -42 21.8 -25.7 45.4 -53.2 52.7 -61.3 2.9 -3.3 6.1 -5.5 9.6 -6.9 7.9 -3.1 14.8 -4.8 19.3 -4.8 3.5 0 4.7 0.6 8.4 4.4 3.3 3.4 4.2 4.9 3.9 7.1 l-0.3 2.8 -5.7 -5.2 c-5.4 -5 -6 -5.2 -9.6 -4.6 -6.4 1 -9.7 3.7 -10.9 8.6 -0.6 2.4 -5.6 22.4 -11.2 44.5 -5.5 22.1 -10.1 40.3 -10.1 40.6 0 0.3 2.1 1.1 4.8 1.7 13.3 3.4 15.2 4.2 15.2 6.5 0 1.2 -0.6 3 -1.3 3.9 -1.1 1.6 -1.9 1.5 -11.1 -0.8 -5.4 -1.4 -10 -2.4 -10.1 -2.3 -0.8 0.9 -6.5 21.5 -6.5 23.5 0 1.6 -0.6 2.3 -2 2.3 -2.6 0 -2.6 -3.2 0 -13 4.1 -14.9 5 -17 7.3 -17.1 1.2 0 1.6 -0.3 1 -0.6 -1.7 -0.6 -1.6 -6.5 0.2 -13.2 1.1 -4.3 1.1 -5.1 0.1 -4 -0.7 0.8 -8.9 10 -18.1 20.4 -9.3 10.5 -19.8 22.3 -23.4 26.4 -3.6 4.1 -9.9 11.3 -14 16 -13.7 16 -15.9 18.1 -19.1 18.1 -2.7 0 -3 0.3 -3 3.3 0 3.5 1 2.3 -29 36.2 l-14.5 16.3 -10.7 4.6 c-6.6 2.8 -12.2 4.6 -14.6 4.6 l-3.9 0 -0.7 -14.1z m64 -57.8 c-0.3 -0.5 0.2 -0.8 1.1 -0.7 3.3 0.2 2 -2 -3.9 -6.9 -8.7 -7.2 -8.4 -7 -10.2 -5.6 -2.2 1.8 -1.1 3.5 5.6 9.1 5.4 4.5 8.8 6.4 7.4 4.1z"/>
  <path d="M182.5 369.7 c-5.7 -4.9 -3.9 -15.4 3 -17.7 7.3 -2.4 13.5 2 13.5 9.7 0 8.9 -9.9 13.7 -16.5 8z"/>
  <path d="M262 371.6 c0 -0.2 17.9 -16.4 39.8 -35.9 21.8 -19.5 51.6 -46.3 66.2 -59.7 14.6 -13.4 28.4 -26.1 30.8 -28.2 l4.3 -3.9 -8.6 -10 c-4.7 -5.4 -9 -9.9 -9.5 -9.9 -0.5 0 -7.6 5.8 -15.7 12.8 -28.2 24.5 -53.8 46.4 -56.6 48.4 l-2.8 2 0.3 -3.2 c0.2 -1.8 1.1 -3.8 2.1 -4.4 1 -0.6 4.8 -3.9 8.5 -7.3 3.7 -3.5 7.1 -6.3 7.5 -6.3 0.5 0 2 -1.3 3.4 -3 1.3 -1.6 2.9 -3 3.5 -3 0.6 0 1.9 -1.1 3 -2.5 1.1 -1.4 2.4 -2.5 2.9 -2.5 0.6 0 2.2 -1.4 3.6 -3 1.3 -1.6 2.9 -3 3.5 -3 0.5 0 2.1 -1.3 3.5 -3 1.3 -1.6 3.3 -3 4.4 -3 1 0 1.9 -0.6 1.9 -1.3 0 -1.9 3.3 -4.7 5.3 -4.7 0.9 0 1.7 -0.6 1.7 -1.3 0 -2 3.3 -4.7 5.8 -4.7 1.5 0 2.2 -0.6 2.2 -1.8 0 -2 3.9 -6.2 5.7 -6.2 0.6 0 1.3 -0.7 1.7 -1.5 0.8 -2.1 7.4 -2 9.8 0.2 1.7 1.5 1.8 1.5 1.8 0 0 -1 -0.7 -1.7 -1.5 -1.7 -1 0 -1.5 -1.1 -1.5 -3.5 0 -2.8 0.4 -3.5 2 -3.5 1.1 0 2 -0.6 2 -1.3 0 -1.8 4.2 -5.7 6.1 -5.7 0.8 0 1.9 -1 2.4 -2.2 0.6 -1.2 1.9 -2.6 2.9 -3.2 1.1 -0.6 3.1 -2.3 4.4 -3.8 1.3 -1.6 2.8 -2.8 3.3 -2.8 0.5 0 2.3 -1.6 4 -3.5 1.9 -2.2 4 -3.5 5.5 -3.5 1.7 0 2.4 -0.6 2.4 -1.8 0 -2.2 3 -5.2 5.1 -5.2 0.8 0 1.9 -1 2.4 -2.2 0.6 -1.2 1.8 -2.6 2.8 -3.2 1 -0.6 3.7 -2.9 6 -5.1 l4.3 -4.1 17.4 -2.7 c25.1 -4 26 -3.9 26 2.9 0 3.8 -0.6 5.1 -4.1 8.9 -2.3 2.5 -5 4.5 -6 4.5 -1.1 0 -1.9 0.6 -1.9 1.3 0 0.7 -2.8 4.1 -6.3 7.5 -5.3 5.2 -6.8 6.2 -9.7 6.2 -3.5 -0.1 -3.4 -0.2 10.8 -13.8 9.9 -9.6 14.1 -14.3 13.7 -15.4 -0.4 -0.9 -1.5 -1.4 -2.8 -1.1 -1.2 0.2 -9.1 1.4 -17.5 2.8 -8.4 1.3 -15.8 2.8 -16.5 3.2 -0.7 0.4 -7.2 5.9 -14.6 12.2 -7.4 6.4 -19.1 16.5 -26 22.4 -6.9 6 -13.2 11.5 -14 12.2 -1.1 1.1 0 2.9 7.4 11.5 l8.7 10.1 7.1 -6.8 c7.2 -6.8 7.2 -6.8 7.5 -3.9 0.3 2.3 -0.6 3.9 -4.9 8.2 -4.8 4.9 -5.8 5.4 -9.6 5.4 l-4.3 0 0 3.8 c0 2.9 -0.7 4.5 -2.8 6.5 -1.5 1.5 -3.6 2.7 -4.5 2.7 -0.9 0 -1.7 0.6 -1.7 1.3 0 2.5 -5.5 6.7 -8.8 6.7 -2.8 0 -3.2 0.3 -3.2 2.8 0 3.7 -6.5 10.2 -10.3 10.2 -2.2 0 -2.7 0.5 -2.7 2.3 0 2.9 -6.8 9.7 -9.8 9.7 -1.5 0 -2.2 0.6 -2.2 1.8 0 2.5 -6.1 8.2 -8.8 8.2 -1.5 0 -2.2 0.6 -2.2 1.8 0 2.5 -6.1 8.2 -8.8 8.2 -1.5 0 -2.2 0.6 -2.2 1.8 0 2.3 -5 7.2 -7.3 7.2 -0.9 0 -1.7 0.6 -1.7 1.3 0 1.9 -6.3 7.7 -8.3 7.7 -0.9 0 -1.7 0.5 -1.7 1.2 0 1.9 -5.2 6.8 -7.2 6.8 -1 0 -1.8 0.6 -1.8 1.3 0 1.9 -5.3 6.7 -7.3 6.7 -0.9 0 -1.7 0.6 -1.7 1.3 0 1.9 -5.3 6.7 -7.3 6.7 -0.9 0 -1.7 0.5 -1.7 1.2 0 1.9 -5.2 6.8 -7.2 6.8 -1 0 -1.8 0.6 -1.8 1.3 0 1.9 -5.3 6.7 -7.3 6.7 -0.9 0 -1.7 0.6 -1.7 1.3 0 2.4 -4.5 5.7 -7.8 5.7 -1.8 0 -3.2 -0.2 -3.2 -0.4z"/>
  <path d="M200.5 351.4 c-2 -2 -1.6 -5.3 0.8 -6.8 3.9 -2.4 7.9 4.4 4.1 7.1 -2.3 1.7 -2.9 1.6 -4.9 -0.3z"/>
  <path d="M256 307.9 c0 -2.8 1.4 -6.7 2.9 -7.9 0.4 -0.3 1.5 -2.4 2.5 -4.7 1.1 -2.4 2.3 -4.3 2.8 -4.3 0.4 0 0.8 -0.5 0.8 -1.1 0 -1.2 15.9 -31 17 -31.9 0.3 -0.3 1.2 -2 1.9 -3.7 1 -2.6 1.9 -3.3 4 -3.3 2.5 0 2.6 -0.3 2.3 -3.9 -0.2 -2.1 0.1 -4.8 0.7 -6 0.7 -1.2 0.8 -2.1 0.2 -2.1 -0.5 0 -1.1 0.7 -1.5 1.5 -0.3 0.8 -1.7 1.5 -3.1 1.5 -2.1 0 -2.5 0.5 -2.5 2.8 0 2.2 -2.3 5 -10.8 13.5 -9.6 9.5 -11.3 10.8 -13.8 10.5 -2.8 -0.3 -2.4 -0.9 11.1 -14.7 7.7 -7.9 15.6 -15.9 17.5 -17.8 l3.5 -3.5 0.3 2.7 0.4 2.8 1.7 -2.9 c1.6 -2.5 1.6 -3 0.3 -3.5 -1.2 -0.4 0.5 -2.7 6.3 -8.8 4.4 -4.6 8.1 -7.8 8.3 -7.3 0.2 0.6 -3.1 7.3 -7.2 15 -4.2 7.7 -7.6 14.5 -7.6 15.2 0 0.6 0.8 1.3 1.8 1.7 0.9 0.3 5.7 2.3 10.7 4.4 6.6 2.9 9.1 3.5 9.7 2.6 0.5 -0.7 0.8 -0.1 0.8 1.6 0 2 -0.5 2.7 -2 2.7 -1.6 0 -2 0.7 -2 3.5 0 1.9 -0.4 3.5 -1 3.5 -0.5 0 -1 -0.6 -1 -1.3 0 -1.1 -19.5 -10.1 -21.6 -10 -0.4 0.1 -3.4 5 -6.7 10.9 -3.2 6 -9.9 18.2 -14.8 27.1 -5 9 -8.8 16.7 -8.4 17.3 0.3 0.5 -0.3 1 -1.4 1 -1.7 0 -2.1 -0.6 -2.1 -3.1z"/>
  <path d="M223.8 302.3 c2.8 -3.2 9.6 -10.3 15.1 -15.8 l10.1 -10 0 3.5 c0 3.1 -1.3 4.7 -11.5 14.9 -6.3 6.3 -11.5 11.8 -11.5 12.3 0 0.4 -1.6 0.8 -3.6 0.8 l-3.6 0 5 -5.7z"/>
  <path d="M221 247.6 c0 -1 0.9 -5.8 2.1 -10.7 1.4 -6 2.5 -8.9 3.5 -8.9 1 0 1.4 1.2 1.4 3.7 l0 3.7 3.3 -3.2 c1.8 -1.8 3.8 -3.2 4.5 -3.2 0.7 0 1.2 -0.9 1.2 -1.9 0 -2.4 3.6 -5.1 6.7 -5.1 1.9 0 2.3 -0.5 2.3 -3 0 -1.8 0.6 -3.3 1.5 -3.6 0.8 -0.4 1.5 -1.2 1.5 -1.8 0 -2.4 4.7 -5.8 7.5 -5.4 l2.6 0.3 -4.5 5.3 c-5 5.9 -5.2 6.2 -3.3 8.2 1 1.2 0.9 1.2 -0.5 0.1 -1.6 -1.2 -3.3 0.2 -15.8 13 -9.3 9.6 -14 13.8 -14 12.5z"/>
  <path d="M347 230 c0 -4 -0.5 -3.1 29.8 -56.2 14.3 -24.9 28.1 -49.2 30.7 -54.1 3.4 -6.3 5.2 -8.7 6.6 -8.7 1.1 0 1.9 0.6 1.7 1.3 -0.1 0.6 1.2 2.6 3 4.4 5 4.9 4.5 7 -6.4 24.9 -5.3 8.8 -11.3 19.3 -13.4 23.4 -2.2 4.1 -5.1 9.4 -6.5 11.8 -1.4 2.3 -2.3 4.2 -2 4.2 0.6 0 6.3 -4.8 24.1 -20.7 9.9 -8.9 14.9 -12.3 17.7 -12.3 1 0 3.1 1.3 4.6 2.8 1.6 1.5 3.3 2.6 4 2.4 0.6 -0.2 1.1 0.5 1.1 1.5 0 2.6 -6.1 8.3 -42.5 39.4 -43.7 37.4 -45.6 38.9 -49.4 38.9 -2.8 0 -3.1 -0.3 -3.1 -3z"/>
  <path d="M434 214.7 c7.5 -7.2 7.5 -7.2 7.8 -4.3 0.3 2.3 -0.5 3.8 -3.9 7.2 -3.5 3.6 -5 4.4 -7.9 4.4 l-3.5 -0.1 7.5 -7.2z"/>
  <path d="M449.5 200.3 l6 -5.7 0.3 2.8 c0.5 4.2 -4 8.6 -8.7 8.6 l-3.6 -0.1 6 -5.6z"/>
  <path d="M262 201.7 c0 -2.7 1.2 -4.4 7.3 -10.5 4 -3.9 7.8 -7.2 8.5 -7.2 0.6 0 1.2 -0.8 1.2 -1.7 0 -1 8.1 -10.1 18 -20.3 9.9 -10.2 18 -18.7 18 -19 0 -0.3 3 -3.6 6.8 -7.3 5.5 -5.5 7.3 -6.7 10 -6.7 1.7 0 3.2 0.5 3.2 1 0 0.6 -0.4 1 -0.9 1 -1 0 -4.3 3.4 -43.5 44.8 -15.3 16 -28 29.2 -28.2 29.2 -0.2 0 -0.4 -1.5 -0.4 -3.3z"/>
  <path d="M249 191.3 c0 -2.1 1.6 -9.9 3.4 -17.3 3.7 -14.8 3.6 -16 -1.8 -21.1 -1.6 -1.5 -2.6 -3.5 -2.6 -5.3 0 -2.2 0.3 -2.7 1.1 -1.9 0.8 0.8 1.8 0.7 3.7 -0.3 4.3 -2.2 8 -1.7 11.3 1.5 2.8 2.8 3.4 4.8 2.9 9.9 -0.1 1.2 0.2 2.2 0.7 2.2 1.6 -0.1 27.1 -25.8 37.7 -38 13 -15 15.8 -17.3 20.5 -16.6 1.8 0.3 4.2 1.3 5.2 2.2 1 0.9 2.3 1.3 2.8 0.9 0.7 -0.4 1.1 0.3 1.1 1.8 0 1.4 -1.8 4.5 -4.2 7.3 -5.6 6.5 -42.3 45 -60.7 63.7 -12.9 13.1 -14.8 14.7 -17.8 14.7 -3.2 0 -3.3 -0.2 -3.3 -3.7z"/>
 </g>
 <g fill="#e54746">
  <path d="M208.7 395.4 c-0.4 -0.4 -0.7 -2.4 -0.7 -4.3 0 -2.9 3.3 -9.3 15.9 -30.8 8.8 -15 19.4 -33.3 23.6 -40.8 6.5 -11.4 8.1 -13.5 10.1 -13.5 1.5 0 2.2 0.5 1.8 1.3 -0.2 0.7 0.3 3 1.1 5.1 l1.6 3.8 -15 30.4 c-8.3 16.8 -15.1 30.7 -15.1 31 0 1.3 25 -2.6 27.8 -4.3 2.3 -1.4 2.3 -1.4 2 1.8 -0.3 3.2 -0.5 3.3 -20.8 11.7 -14.9 6.2 -22 8.6 -26 8.9 -3 0.3 -5.8 0.1 -6.3 -0.3z"/>
  <path d="M250.2 365.3 c-3.4 -1.4 -3.3 -8.2 0.2 -10.5 3.4 -2.3 8.6 1 8.6 5.4 0 3.8 -4.9 6.7 -8.8 5.1z"/>
  <path d="M255.7 349.3 c-1.6 -1.5 -0.6 -3.4 1.5 -3.1 2.9 0.4 3.8 3.8 1 3.8 -1 0 -2.2 -0.3 -2.5 -0.7z"/>
  <path d="M167.8 325.7 c-3.5 -2.8 -5.4 -5.2 -5.6 -6.8 -0.2 -1.4 2.2 -11.3 5.2 -22 3 -10.7 5.9 -21.3 6.5 -23.6 0.9 -3.3 1.7 -4.3 3.2 -4.3 1.2 0 1.9 0.5 1.7 1.2 -0.3 0.7 0.1 3.3 0.9 5.7 1.8 6.2 1.6 13.2 -0.7 24.2 -1.1 5.2 -2 10.6 -2 12.2 0 2.3 0.3 2.7 2.3 2.2 1.2 -0.2 10.3 -1.6 20.2 -3 9.9 -1.5 18.5 -3.1 19.2 -3.7 1 -0.8 1.3 -0.3 1.3 2.4 0 2.5 -0.8 4.2 -3.2 6.5 -2.7 2.6 -6.4 4 -20.7 8.2 -9.6 2.8 -18.7 5.1 -20.2 5.1 -1.8 0 -4.7 -1.5 -8.1 -4.3z"/>
  <path d="M184.2 308.4 c-2.8 -1.9 -3 -7.4 -0.4 -9.7 2.5 -2.3 6.8 -2.1 9.2 0.3 5.8 5.8 -2 14.2 -8.8 9.4z"/>
  <path d="M292 303.4 c0 -0.4 4.4 -9.5 9.7 -20.2 8.8 -17.7 9.5 -19.5 8 -20.7 -2.3 -1.6 -2.1 -2.5 0.3 -2.5 1.4 0 2 -0.7 2 -2.4 0 -1.9 0.4 -2.3 1.9 -1.9 2.1 0.5 2.6 -0.5 17.1 -31.7 9.4 -20.1 32.1 -68 42.3 -89 4.7 -9.6 8.3 -17.8 8.1 -18.2 -0.7 -1.1 -47.6 13.3 -50.1 15.4 -1 0.8 -1.3 0.3 -1.3 -2.1 0 -2.3 1 -4.1 3.6 -6.7 4.9 -4.6 8.5 -6.4 37.5 -17.8 30.5 -12 33.9 -12.2 33.9 -2.8 0 5.2 -1.2 7.6 -40.7 83.7 -43.1 82.9 -39 75.5 -42.1 75.5 -2.6 0 -2.7 0.2 -2.4 3.8 0.6 6.2 -4.5 16.2 -12.5 24.4 -7.4 7.5 -15.3 14.4 -15.3 13.2z"/>
  <path d="M187.4 290.5 c-0.4 -0.9 -0.2 -2.1 0.4 -2.7 1.6 -1.6 4.7 -0.5 4.7 1.7 0 2.6 -4.2 3.4 -5.1 1z"/>
  <path d="M59.7 267.9 c-3.3 -2.7 -3.7 -3.5 -3.7 -7.7 0.1 -4.6 0.3 -5 15.5 -22.2 8.5 -9.6 15.5 -17.8 15.5 -18.2 0 -0.5 2.2 -0.8 4.9 -0.8 4.4 0 5.2 0.4 8.9 4.4 l4 4.4 3.9 -4 3.8 -4 -7.8 -7.1 c-12.1 -11.3 -14.2 -7.1 26.9 -53.3 l34.6 -38.9 4.4 -0.3 c4.2 -0.3 4.8 0 13.9 7.8 9.2 7.9 9.5 8.3 9.5 12.4 0 4 -0.9 5.3 -17.2 24.7 -9.5 11.3 -33.2 39 -52.7 61.7 -32.4 37.8 -35.6 41.2 -38.4 41.2 -2.4 0 -2.8 -0.3 -1.9 -1.2 2.6 -2.6 0.6 -7.2 -2.2 -4.9 -0.7 0.6 -1.5 0.8 -1.8 0.5 -0.3 -0.3 -2.3 1.5 -4.4 4 -3.4 4.1 -4.3 4.6 -7.9 4.6 -3 0 -5 -0.8 -7.8 -3.1z"/>
  <path d="M225 229.4 c0 -0.9 -0.9 -2.7 -1.9 -4 -1.8 -2.3 -1.8 -2.9 -0.5 -8.2 0.7 -3.1 4.2 -17.8 7.8 -32.7 4.7 -19.5 6.2 -27.3 5.4 -28.2 -0.8 -1 -0.3 -1.3 2.4 -1.3 4.4 0 6.8 2.6 6.8 7.3 0 2.7 -13.2 59.8 -15.5 67.5 -0.6 1.8 -4.5 1.5 -4.5 -0.4z"/>
  <path d="M73.9 207.9 c-1.5 -1.5 -1.9 -2.8 -1.4 -4.7 1.8 -7.7 12.5 -6.5 12.5 1.4 0 5 -7.2 7.2 -11.1 3.3z"/>
  <path d="M353.4 150.5 c-0.8 -1.9 0.3 -3.5 2.6 -3.5 1.9 0 3 1.7 2.3 3.8 -0.6 1.7 -4.2 1.5 -4.9 -0.3z"/>
  <path d="M355.7 140.2 c-3.8 -4.2 -1 -11.2 4.4 -11.2 5.7 0 9.1 7.7 5.1 11.3 -2.5 2.2 -7.5 2.1 -9.5 -0.1z"/>
 </g>
 <g fill="#324f63">
  <path d="M205.3 409.4 c-3.7 -1.8 -7.7 -6.7 -10 -12.1 -3.1 -7.5 -1.8 -10.9 12.7 -35.4 7.3 -12.3 16.9 -28.2 21.3 -35.2 4.4 -7 7.7 -13 7.4 -13.3 -0.2 -0.3 -4.2 3.6 -8.7 8.5 -9.2 10.1 -7.9 9.5 -33.1 17.1 -18 5.4 -22 5.9 -26.1 3.2 -6.5 -4.2 -17.6 -13.3 -18.3 -14.9 -3 -7.4 -2.8 -9 4.6 -35.1 2.2 -7.8 3.9 -14.8 3.7 -15.4 -0.2 -0.6 -3.8 2.9 -7.9 7.7 -4 4.9 -11.4 13.4 -16.4 19 -4.9 5.6 -15.1 17.1 -22.5 25.5 -7.4 8.4 -20.1 22.5 -28.2 31.4 l-14.8 16.2 -14.7 5.8 c-16 6.3 -19.9 6.7 -25.2 2.8 -6.6 -4.8 -7.3 -7.7 -8.7 -32.2 l-0.6 -11.5 3.3 -4.7 c1.9 -2.5 17.6 -20.7 34.9 -40.4 58.6 -66.6 133 -153.9 133 -156 0 -1.8 -18.8 -17.6 -20.5 -17.2 -1.3 0.3 -70.5 77.5 -70.5 78.7 0 0.4 3.8 4.2 8.5 8.5 4.7 4.2 8.5 8.4 8.5 9.2 0 0.9 -3.1 5 -6.9 9.2 -3.8 4.2 -14.1 16 -22.8 26.2 -19.2 22.3 -19.9 22.6 -30 13.2 -3.7 -3.3 -5.3 -5.6 -5.3 -7.3 0 -1.8 4.9 -8.2 17 -22.4 9.4 -11 18.1 -20.8 19.4 -21.9 3.1 -2.4 5.4 -1.6 11.8 4.1 4.8 4.2 5.1 4.3 6.9 2.7 1 -0.9 1.9 -2.1 1.9 -2.6 0 -0.6 -3.6 -4.4 -8 -8.6 -5.1 -4.9 -8 -8.5 -8 -9.8 0 -1.2 1.2 -3.7 2.8 -5.5 3.9 -5 65.2 -73.8 69.1 -77.6 5.3 -5.4 7.4 -4.7 20 6.2 6 5.2 11.7 9.5 12.5 9.5 0.8 0 6.6 -1.8 12.7 -4 12.2 -4.4 18 -4.9 21.9 -2.2 3.5 2.3 24.1 23.7 25.7 26.5 1.9 3.3 1.6 5.7 -2.2 21.5 -2 7.9 -3.4 14.6 -3.2 14.8 0.7 0.8 69.4 -70.3 76.5 -79.2 3.6 -4.4 4.8 -5.1 27.7 -14.5 35.1 -14.3 39.4 -15.9 44.4 -15.9 8.8 0 16.6 8.5 17.8 19.4 0.5 3.7 -0.3 5.7 -5.9 16.7 -3.5 6.8 -18.2 33 -32.6 58.2 -14.4 25.2 -27.2 47.7 -28.3 49.9 l-2.1 4.1 5.3 -4.2 c8.8 -6.9 77.2 -65.7 79.9 -68.6 3.7 -4 4.9 -4.4 20.3 -7 7.8 -1.3 18.3 -3.2 23.4 -4.1 8.9 -1.7 9.2 -1.6 13 0.3 6.9 3.6 11 12.5 9.9 21.7 -0.3 2.7 -1.2 5.9 -2.1 7.2 -0.8 1.2 -10.4 10.5 -21.4 20.5 l-19.9 18.3 7.4 7.9 c5.9 6.2 7.4 8.5 7.4 10.9 0 2.7 -3.8 6.9 -29.7 33.2 -16.4 16.6 -30.5 30.6 -31.3 31.3 -0.8 0.7 -3 1.3 -4.9 1.3 -2.9 0 -4.6 -1.2 -13.1 -9.6 l-9.8 -9.6 -20.3 18.4 c-23.2 20.9 -75 66.7 -87.8 77.7 -4.7 4 -10.6 9.3 -13.1 11.7 -3.1 2.9 -8.5 6.2 -17 10.2 -28.8 13.6 -33.8 15 -40.7 11.6z m32.2 -25.4 l19.9 -8.2 20.5 -18.2 c36.2 -32 61.1 -54.4 84 -75.5 12.3 -11.3 26.6 -24.4 31.7 -28.9 5.2 -4.6 9.4 -8.8 9.4 -9.3 0 -0.4 -1.4 -2.4 -3.1 -4.4 -1.8 -2 -2.9 -3.8 -2.6 -4.2 0.4 -0.3 0 -1.5 -0.8 -2.7 -1.6 -2.2 -2.1 -8.6 -0.6 -8.6 0.5 0 3.5 3.1 6.6 7 3.1 3.8 6.2 7 6.7 7 0.6 0 8.9 -7.6 18.6 -16.8 9.8 -9.3 24.2 -22.9 32.2 -30.3 22.5 -20.8 25 -23.4 25 -25.2 0 -1 -0.6 -2 -1.4 -2.3 -0.7 -0.3 -9.1 0.8 -18.6 2.3 l-17.2 2.8 -27.8 24 c-15.4 13.2 -27.9 24.5 -27.9 25.1 -0.1 0.6 0.6 1.7 1.4 2.4 2.1 1.7 1.9 3 -0.5 3 -1.1 0 -2 0.5 -2 1 0 1.4 -3.3 1.3 -4.7 -0.1 -1.4 -1.4 2.1 -4.2 -42.2 33.9 -19.4 16.7 -35.6 30.1 -35.9 29.8 -0.3 -0.3 1.6 -5.1 4.2 -10.6 2.6 -5.5 4.5 -10.4 4.2 -10.8 -0.3 -0.5 -2.3 -1.7 -4.6 -2.7 -2.5 -1.1 -4 -2.5 -4 -3.6 0 -1.2 -0.9 -1.9 -2.7 -2.1 -2.3 -0.2 -2.9 -0.8 -3.1 -3.5 -0.2 -1.8 -0.1 -3.3 0.2 -3.3 0.3 0 4.6 1.8 9.5 4 4.9 2.2 9.1 4 9.4 4 0.7 0 3.1 -4.7 40 -75.5 32.6 -62.8 40.7 -78.9 40.7 -80.8 0 -0.8 -0.7 -2 -1.5 -2.7 -1.1 -1 -6.1 0.7 -26.2 8.6 -13.6 5.3 -26.9 10.8 -29.5 12 -3 1.5 -8.7 6.6 -15.5 13.6 -43.7 45.5 -76.5 80.6 -79.6 85.1 -1.5 2.3 -3.8 4.8 -5.1 5.7 -1.2 0.8 -5.1 4.5 -8.5 8.3 -6.4 6.8 -8.1 7.9 -8.1 5.2 0 -0.8 -0.9 -1.5 -2 -1.5 -1.9 0 -2 -0.4 -1.5 -3.7 0.4 -2.1 1 -4.7 1.5 -5.8 0.5 -1.1 4.3 -16.3 8.6 -33.8 6.4 -26.8 7.4 -32.1 6.3 -33.1 -0.8 -0.7 -4.9 -4.5 -9.1 -8.5 l-7.7 -7.3 -5.2 1.2 c-10.6 2.6 -16.8 5.7 -21.3 10.7 -7.3 8.1 -30.9 35.6 -52.7 61.3 -11.4 13.5 -27.6 32.6 -36 42.6 -16.3 19.2 -19.5 23 -34.4 41.6 -5.1 6.5 -15.4 18.8 -22.7 27.4 -7.3 8.6 -13.6 16.1 -13.9 16.7 -1 1.7 0.2 23.7 1.3 23.7 0.5 0 5.7 -2.1 11.6 -4.6 10.2 -4.3 11 -4.9 17.2 -12.1 3.6 -4.1 11.8 -13.4 18.4 -20.7 6.5 -7.2 13.4 -15 15.4 -17.4 l3.5 -4.3 -3.1 -3.2 c-3.7 -3.8 -3.9 -5 -1.4 -7.5 1.6 -1.8 1.8 -1.8 5.9 1.5 l4.2 3.3 4.4 -4.7 c2.5 -2.7 7.8 -8.7 11.8 -13.4 24.9 -28.9 60.1 -67.9 61.4 -67.9 2.4 0 2.5 5.9 0.4 13.8 -1.5 5.2 -1.8 7.7 -1 8 0.6 0.2 1.1 2.2 1.1 4.4 0 3.5 -0.2 4 -2 3.5 -2.3 -0.6 -1.9 -1.8 -13.8 41.1 l-7.9 28.3 4.1 3.5 c2.3 2 4.8 3.9 5.6 4.4 0.9 0.5 8 -1.1 18.5 -4.2 l16.9 -5 16.5 -17.1 c9.1 -9.5 25.4 -26.2 36.1 -37.2 10.8 -11 24.7 -25.4 31 -32 6.3 -6.6 12.1 -12.2 12.9 -12.4 0.9 -0.2 0.1 2.1 -2.1 6 -11.2 20.3 -12 21.9 -10.9 23.3 0.6 0.7 0.8 1.6 0.4 1.9 -0.3 0.4 -0.1 0.7 0.5 0.7 0.7 0 1.2 0.7 1.2 1.5 0 0.9 0.9 1.5 2.5 1.5 2.1 0 2.5 0.5 2.5 2.9 l0 3 -6 -2.6 c-3.3 -1.5 -6.2 -2.4 -6.4 -2.2 -0.2 0.2 -5.9 10.5 -12.6 22.9 -13.7 25.1 -25.1 45.1 -47.5 83.5 -18.3 31.4 -17.8 30.3 -16.9 31.6 1.1 1.8 4.8 0.6 25.9 -8.1z m200 -121 l30 -30 -6.5 -6.5 c-3.5 -3.6 -6.9 -6.5 -7.5 -6.5 -0.9 0 -6.3 4.6 -29.6 24.9 -26.4 23 -33.8 29.7 -33.8 30.5 -0.1 0.9 15.9 17.6 16.8 17.6 0.4 0 14.1 -13.5 30.6 -30z m-362 -3.2 c7.9 -9.2 20.8 -24.1 23.9 -27.6 l2 -2.2 -3.9 -4 c-3.5 -3.6 -7.5 -5.3 -7.5 -3.2 0 0.4 -7 8.6 -15.5 18.2 -8.5 9.6 -15.4 18.3 -15.5 19.2 0 1.7 6.6 7.8 8.5 7.8 0.5 0 4.2 -3.7 8 -8.2z"/>
 </g>
 <g fill="#3a5159">
  <path d="M250.9 378.5 c4.2 -1.9 5 -1.9 2.5 0 -1 0.8 -2.8 1.4 -3.9 1.4 -1.4 0 -1 -0.4 1.4 -1.4z"/>
  <path d="M261 372.5 c1.9 -1.9 3.6 -3.5 3.8 -3.5 0.8 0 -5.3 6.9 -6.2 6.9 -0.6 0.1 0.5 -1.5 2.4 -3.4z"/>
  <path d="M37.5 369.8 c-0.2 -0.7 -0.6 -6.1 -1 -12 l-0.6 -10.6 8.6 -10.4 c4.7 -5.6 10.7 -12.7 13.3 -15.7 2.6 -3 5.6 -6.7 6.8 -8.2 1.1 -1.6 3.8 -5 6 -7.5 6 -7.2 10.5 -12.8 14.9 -18.5 2.2 -2.9 8.6 -10.5 14.2 -17 8 -9.4 10 -12.3 9.6 -14 -0.5 -1.6 -0.3 -2 0.6 -1.5 1.5 1 9.3 -7 23.3 -23.9 5.5 -6.6 12.1 -14.4 14.6 -17.3 2.5 -2.9 5.4 -6.5 6.6 -8 1.1 -1.5 4.4 -5.5 7.3 -8.9 3 -3.3 5 -6.3 4.6 -6.5 -0.4 -0.3 -0.2 -0.3 0.5 -0.2 1.1 0.3 1.3 -0.2 1.1 -2.2 0 -0.4 1 -1.2 2.3 -1.8 1.2 -0.6 4.9 -4.3 8.3 -8.2 20.8 -24.5 22.5 -26.3 28.3 -28.4 3 -1.1 5.7 -1.9 5.9 -1.6 0.2 0.2 -1.9 1.2 -4.8 2.1 -3 1 -6.5 3.1 -8.2 4.9 -4.7 5.1 -36.9 42.5 -56.9 66.1 -10.2 12.1 -25.5 30.1 -33.9 40.1 -16.3 19.2 -19.5 23 -34.4 41.6 -5.1 6.5 -15.4 18.8 -22.7 27.4 -7.3 8.6 -13.6 16.1 -13.9 16.7 -1 1.7 0.2 23.7 1.3 23.7 0.5 0 5.7 -2.1 11.6 -4.6 10.2 -4.3 11 -4.9 17.2 -12.1 3.6 -4.1 11.8 -13.4 18.4 -20.7 6.5 -7.2 13.5 -15.1 15.4 -17.5 l3.6 -4.3 -4.5 -4.3 -4.5 -4.2 3.3 -1.2 c2.1 -0.8 3.1 -1.7 2.6 -2.4 -0.4 -0.7 1.4 0.5 3.9 2.6 l4.7 3.7 4.4 -4.7 c2.4 -2.7 7.5 -8.4 11.2 -12.8 3.8 -4.4 8.9 -10.3 11.4 -13 2.5 -2.8 16 -18 30 -33.8 14 -15.8 25.6 -28.5 25.9 -28.2 0.2 0.2 -1.2 6.5 -3.3 14 -2 7.5 -3.4 13.9 -3.2 14.2 0.3 0.2 4.9 1.7 10.3 3.1 9.9 2.8 9.9 2.8 9.6 5.7 -0.2 1.7 -0.6 3.2 -0.8 3.5 -0.3 0.2 -5.1 -0.7 -10.7 -2.2 -7.2 -1.8 -10.4 -2.2 -10.9 -1.4 -0.3 0.6 -1.8 5.4 -3.3 10.6 -3.4 12.2 -3.5 12.4 -4 11.8 -0.3 -0.3 0.3 -3.4 1.4 -6.9 1.1 -3.5 2.2 -8.4 2.6 -10.8 0.4 -2.4 1.6 -5.2 2.6 -6.2 1.1 -1.1 1.9 -3.3 1.9 -5.2 0 -1.8 0.6 -5.7 1.4 -8.7 1 -3.7 1.1 -5.7 0.4 -6.1 -0.6 -0.4 -1 -1.8 -1 -3.3 0 -1.4 -0.3 -2.6 -0.7 -2.5 -0.5 0 -8.6 9 -19.3 21.4 -2.4 2.7 -10.6 11.9 -18.3 20.5 -7.7 8.5 -19.1 21.5 -25.4 28.8 -6.2 7.2 -11.6 13.2 -12.1 13.2 -0.4 0 -1.3 -0.7 -2 -1.6 -0.8 -0.8 -2.3 -2 -3.4 -2.6 -2 -1 -2 -1 -0.5 0.8 0.9 1 2.2 3 2.9 4.3 l1.2 2.4 -3.8 -2.4 -3.9 -2.3 2.4 3.2 c2.7 3.8 3.3 2.6 -7.9 15.2 -4.1 4.7 -8.9 10.1 -10.6 12 -1.7 1.9 -6.9 7.8 -11.5 13 -4.7 5.2 -9.4 10.5 -10.4 11.8 -1.8 2 -21.7 11.2 -24.4 11.2 -0.6 0 -1.3 -0.6 -1.6 -1.2z"/>
  <path d="M21.3 365 c0 -3 0.2 -4.3 0.4 -2.7 0.2 1.5 0.2 3.9 0 5.5 -0.2 1.5 -0.4 0.2 -0.4 -2.8z"/>
  <path d="M266 368.8 c0 -0.3 7.7 -7.4 17 -15.7 9.4 -8.4 17 -15 17 -14.7 0 0.6 -6.4 6.5 -18.5 17.1 -4.9 4.4 -9.2 8.2 -9.5 8.5 -1.8 1.9 -6 5.3 -6 4.8z"/>
  <path d="M20.2 350 c0 -1.9 0.2 -2.7 0.5 -1.7 0.2 0.9 0.2 2.5 0 3.5 -0.3 0.9 -0.5 0.1 -0.5 -1.8z"/>
  <path d="M304.5 334 c2.1 -2.2 4.1 -4 4.4 -4 0.3 0 -1.3 1.8 -3.4 4 -2.1 2.2 -4.1 4 -4.4 4 -0.3 0 1.3 -1.8 3.4 -4z"/>
  <path d="M314 325.5 c1.9 -1.9 3.6 -3.5 3.9 -3.5 0.3 0 -1 1.6 -2.9 3.5 -1.9 1.9 -3.6 3.5 -3.9 3.5 -0.3 0 1 -1.6 2.9 -3.5z"/>
  <path d="M324 316.5 c1.9 -1.9 3.6 -3.5 3.9 -3.5 0.3 0 -1 1.6 -2.9 3.5 -1.9 1.9 -3.6 3.5 -3.9 3.5 -0.3 0 1 -1.6 2.9 -3.5z"/>
  <path d="M215.8 311.5 c2.8 -3.3 10.2 -10.9 16.4 -17 l11.2 -11 -11 11.5 c-6 6.3 -11.4 12.1 -12.1 12.7 -0.6 0.7 -2 2.3 -3 3.5 -1 1.3 -3 3.2 -4.3 4.3 -1.3 1.1 -0.1 -0.7 2.8 -4z"/>
  <path d="M334 307.5 c1.9 -1.9 3.6 -3.5 3.9 -3.5 0.3 0 -1 1.6 -2.9 3.5 -1.9 1.9 -3.6 3.5 -3.9 3.5 -0.3 0 1 -1.6 2.9 -3.5z"/>
  <path d="M262.5 300 c0.9 -1.6 1.8 -3 2.1 -3 0.2 0 -0.2 1.4 -1.1 3 -0.9 1.7 -1.8 3 -2.1 3 -0.2 0 0.2 -1.3 1.1 -3z"/>
  <path d="M341 301.8 c0 -0.3 4.4 -4.5 9.8 -9.4 5.3 -4.8 8.8 -7.8 7.7 -6.5 -2.4 2.8 -17.5 16.5 -17.5 15.9z"/>
  <path d="M268.6 288.5 c2.7 -6.3 2.9 -6.9 1.2 -5.9 -0.7 0.4 -0.8 0.3 -0.4 -0.5 0.4 -0.6 1.2 -0.8 1.8 -0.5 0.7 0.4 0.8 0.2 0.4 -0.4 -0.8 -1.3 3.2 -11.2 4.5 -11.2 0.5 0 0.9 -0.9 0.9 -2 0 -1.1 0.9 -2.8 2 -3.7 1.1 -1 2 -2.5 2 -3.5 0 -1.2 0.8 -1.8 2.2 -1.8 1.7 0 1.9 -0.3 1 -1.2 -1.3 -1.3 0.2 -4.8 2.2 -4.8 1.8 0 5.8 -8.2 5 -10.3 -0.4 -1 -0.1 -1.7 0.6 -1.7 0.9 0 0.9 -0.4 -0.1 -1.7 -1 -1.1 -1 -1.4 -0.1 -0.9 0.6 0.4 1.2 0.2 1.2 -0.4 0 -0.6 1.2 -2.9 2.6 -5.1 1.4 -2.3 2.4 -4.3 2.1 -4.5 -0.2 -0.2 -3 2.4 -6.1 5.8 -3.2 3.5 -8 8.7 -10.8 11.6 -2.8 2.8 -4.6 5.2 -3.9 5.2 2 0 1.2 2 -2 4.9 -2 1.8 -3.9 2.7 -5.2 2.5 -1.2 -0.2 -1.7 -0.2 -1 0.2 0.7 0.3 0.9 1.2 0.6 2 -0.4 1.2 -0.8 1.3 -1.3 0.3 -0.6 -0.8 -1.9 -0.1 -4.4 2.4 -3.4 3.5 -4.7 5.5 -2.6 4.2 0.6 -0.3 1 -0.3 1 0.2 -0.1 1.4 -2.7 4.3 -3.9 4.3 -0.8 0 -0.7 -0.6 0.4 -1.6 0.9 -0.9 1.3 -1.9 1 -2.2 -0.3 -0.4 -0.9 -0.2 -1.3 0.3 -0.4 0.6 -3.4 3.5 -6.7 6.5 -3.3 3 -0.6 0 5.9 -6.7 6.6 -6.7 12.3 -12 12.8 -11.7 0.5 0.3 0.7 0.1 0.6 -0.4 -0.2 -0.5 7.6 -9.2 17.2 -19.3 15.6 -16.5 22.4 -23 20.8 -20.3 -8.3 14.7 -15.8 29.7 -15.2 30.3 0.5 0.4 3.5 1.8 6.6 3.1 3.2 1.2 5.6 2.6 5.3 3 -0.3 0.5 0 1.2 0.6 1.6 0.8 0.4 0.9 0.3 0.5 -0.4 -1.1 -1.9 1.5 -1.3 6.4 1.3 2.5 1.3 3.7 2.4 2.8 2.5 -1 0 -1.8 0.7 -1.8 1.6 0 1 -0.6 1.4 -1.4 1.1 -0.8 -0.3 -1.6 0 -1.8 0.8 -0.2 1 -1.6 0.8 -6.3 -1.2 -3.3 -1.4 -6.3 -3 -6.7 -3.7 -0.4 -0.6 -0.8 -0.8 -0.8 -0.4 0 0.4 -1.8 0.1 -4 -0.8 -2.3 -0.9 -4.2 -1.5 -4.4 -1.3 -0.2 0.2 -5.2 9.3 -11.1 20.2 -5.9 10.8 -10.9 19.7 -11.1 19.7 -0.1 0 0.8 -2.5 2.2 -5.5z m36.4 -66.9 c0 -0.5 -0.9 -0.1 -2 0.9 -1.1 1 -1.7 2.2 -1.4 2.7 0.6 0.9 3.3 -2 3.4 -3.6z"/>
  <path d="M309.3 286.6 c0.9 -0.7 1.7 -2.3 1.7 -3.6 0 -1.7 0.4 -2.1 1.9 -1.7 1 0.2 2.5 0.1 3.2 -0.4 1.1 -0.7 1 -0.9 -0.3 -0.9 -1 0 -1.8 -0.2 -1.8 -0.5 0 -0.7 3.9 -4.5 4.5 -4.5 0.3 0 0.1 0.9 -0.5 2 -1.7 3.1 0.2 2.3 3.5 -1.5 1.7 -1.9 3.5 -3.5 4.1 -3.5 0.6 0 2.1 -1.2 3.5 -2.7 1.9 -2.1 2 -2.5 0.6 -2 -1.1 0.4 -1.6 0.3 -1.2 -0.4 0.4 -0.6 1.4 -0.8 2.2 -0.5 0.8 0.4 2.5 -0.3 3.7 -1.3 2.9 -2.6 12.6 -11 16.2 -14.1 1.6 -1.4 7.2 -6.1 12.4 -10.5 5.2 -4.3 12.2 -10.3 15.4 -13.2 3.3 -2.9 6.8 -5.3 7.8 -5.3 1 0 1.8 -0.7 1.8 -1.6 0 -1.1 0.6 -1.5 1.9 -1.1 1.3 0.3 1.7 0 1.4 -1.2 -0.3 -1 2 -3.8 6.4 -7.7 7.3 -6.5 7.9 -7 19.4 -16.6 4.2 -3.5 12.2 -10.3 17.8 -15.3 13.1 -11.5 12.8 -11.2 18.1 -12 2.5 -0.4 8.1 -1.3 12.5 -2.1 4.4 -0.8 10.5 -1.7 13.6 -2.1 5.2 -0.5 5.7 -0.4 6.3 1.5 0.4 1.2 0.3 3 -0.3 4 -0.6 1 -9.2 9.5 -19.3 18.8 -10.1 9.3 -23.9 22.3 -30.8 28.9 -18.2 17.4 -22 21 -22 20.3 0 -0.7 24.2 -23.7 52.8 -50.3 10 -9.3 18.5 -17.8 18.8 -18.8 1.2 -3.9 -0.9 -4 -19.1 -1.1 l-17.7 2.9 -27.8 24 c-15.4 13.2 -27.9 24.4 -27.9 24.9 -0.1 0.6 1.7 3.2 4 5.8 2.3 2.7 3.9 5.2 3.5 5.5 -0.6 0.6 2.5 5.3 6.1 9.2 1.2 1.4 2 2.8 1.7 3.3 -0.6 0.9 -3.9 -0.6 -4.9 -2.2 -0.3 -0.6 -1.1 -1 -1.7 -1 -0.7 0 -0.6 0.6 0.2 1.8 1.8 2.5 -4.7 -4.4 -10.6 -11.3 l-5.1 -5.9 -3 2.5 c-1.6 1.3 -18.8 16 -38.2 32.7 -19.3 16.6 -35.5 30.2 -35.9 30.2 -0.4 0 0.1 -0.7 1.1 -1.4z"/>
  <path d="M363 281.9 c0 -0.3 5.5 -5.7 12.3 -11.9 9.7 -9 10.4 -9.5 3.2 -2.4 -10.7 10.5 -15.5 15 -15.5 14.3z"/>
  <path d="M75 276.7 c0 -0.2 1.5 -1.6 3.3 -3.3 l3.2 -2.9 -2.9 3.3 c-2.8 3 -3.6 3.7 -3.6 2.9z"/>
  <path d="M175 267 c-1.3 -0.8 -1.2 -1.3 0.8 -3.2 l2.2 -2.2 0 2.2 c0 1.2 -0.5 2.2 -1.1 2.2 -0.5 0 -0.7 0.5 -0.4 1 0.8 1.2 0.4 1.2 -1.5 0z"/>
  <path d="M396.4 250.9 c4.9 -4.7 6.7 -7 6.1 -8 -0.7 -1.2 -0.5 -1.2 0.6 -0.1 1.2 1.1 0.6 2 -3.6 6 -2.8 2.6 -6.2 5.6 -7.6 6.7 -1.4 1.1 0.6 -1 4.5 -4.6z"/>
  <path d="M221.2 246.9 c0.3 -0.8 1.3 -5 2.3 -9.4 0.9 -4.4 2.1 -8.9 2.5 -10 0.5 -1.1 1.1 -2.7 1.3 -3.5 0.4 -1.2 0.6 -1.1 0.6 0.3 0.1 0.9 -0.5 2.6 -1.1 3.7 -1.1 1.7 -1 2.2 0.1 2.9 0.8 0.5 1 1.4 0.6 2.1 -0.6 1 -0.1 1.2 1.9 0.8 2.4 -0.5 2.7 -0.3 2.2 1.6 -0.3 1.4 0.9 0.6 3.9 -2.7 2.5 -2.7 4.5 -4.5 4.5 -4.1 0 0.8 -17 18.8 -18.3 19.3 -0.6 0.2 -0.8 -0.3 -0.5 -1z"/>
  <path d="M233.2 230 c0.7 -1.1 2.2 -2 3.3 -1.9 1.8 0 1.8 0.1 -0.3 1 -1.3 0.5 -2 1.3 -1.7 1.9 0.3 0.5 -0.1 1 -0.9 1 -1.4 0 -1.4 -0.3 -0.4 -2z"/>
  <path d="M349.6 230.1 c-0.3 -0.4 0.1 -1.7 0.9 -2.7 1.5 -1.8 1.5 -1.8 0.8 0.1 -0.6 1.8 -0.5 1.9 1.3 0.5 1.9 -1.4 1.9 -1.4 0 0.8 -2.1 2.5 -2.3 2.5 -3 1.3z"/>
  <path d="M359.5 222.8 c2.7 -2.4 19.4 -16.6 37 -31.7 17.6 -15.1 34.5 -29.7 37.5 -32.6 5.4 -5 10.4 -7.5 12.1 -5.8 0.5 0.5 -0.5 1 -2.3 1.1 -3.3 0.3 -13.2 8.4 -15.6 12.9 -0.7 1.3 -1.7 2.1 -2.2 1.8 -0.6 -0.4 -1 0 -1 0.7 0 2.1 -6.4 7.9 -8.9 8.1 -1.8 0.1 -29.3 22.7 -50.6 41.5 -1.7 1.5 -4.8 4 -7 5.5 -3.3 2.4 -3.1 2.1 1 -1.5z"/>
  <path d="M355.1 218.8 c2.9 -5.7 11.2 -19.8 11.6 -19.8 0.3 0 -0.7 2.1 -2.2 4.8 -1.5 2.6 -4.3 7.5 -6.2 11 -1.9 3.4 -3.7 6.2 -3.9 6.2 -0.3 0 0.1 -1 0.7 -2.2z"/>
  <path d="M460.4 217.8 l-2.9 -3.3 3.3 2.9 c1.7 1.7 3.2 3.1 3.2 3.3 0 0.8 -0.8 0.1 -3.6 -2.9z"/>
  <path d="M256.7 209.8 c4.8 -5 8.2 -9 8.4 -9.9 0.1 -0.4 6 -6.7 13.3 -14.1 7.2 -7.3 20.8 -21.5 30.2 -31.3 28 -29.4 29.8 -31.2 26.9 -27.5 -1.5 1.9 -13.9 15.2 -27.4 29.5 -13.6 14.3 -31.4 33.1 -39.6 41.8 -8.1 8.6 -15.1 15.7 -15.4 15.7 -0.3 0 1.3 -1.9 3.6 -4.2z"/>
  <path d="M368.1 195.8 c3.3 -6.3 10.1 -17.8 10.6 -17.8 0.3 0 -0.6 1.9 -2 4.3 -1.3 2.3 -3.9 6.8 -5.7 10 -3 5.4 -5.4 8.3 -2.9 3.5z"/>
  <path d="M251 191.8 c0.1 -2 3.8 -15.4 3.9 -13.9 0.1 0.7 -0.6 4 -1.5 7.3 -0.8 3.3 -1.3 6.2 -1.1 6.4 0.7 0.7 66.3 -67.2 76.4 -79.1 2.4 -2.7 4.3 -4.7 4.3 -4.2 0 1.3 -15.6 18.5 -32.5 35.7 -8.8 9.1 -23 23.8 -31.4 32.8 -14.2 15 -18.1 18.2 -18.1 15z"/>
  <path d="M487 187.7 c0 -0.2 1.5 -1.6 3.3 -3.3 l3.2 -2.9 -2.9 3.3 c-2.8 3 -3.6 3.7 -3.6 2.9z"/>
  <path d="M380.8 173.5 c1.1 -2.2 2.8 -4.9 3.7 -6 0.9 -1.1 0.4 0.3 -1.1 3 -3.4 6.2 -5.4 8.5 -2.6 3z"/>
  <path d="M257.7 163 c0.3 -3 0.7 -5.7 0.9 -5.9 0.8 -0.9 0.2 7.5 -0.6 9.4 -0.5 1.2 -0.6 -0.1 -0.3 -3.5z"/>
  <path d="M231.5 151.9 c-3.3 -3.3 -6.9 -6.5 -8 -6.9 -1.7 -0.8 -1.8 -0.9 -0.2 -0.9 1 -0.1 4.6 2.3 8 5.2 6.5 5.5 7.1 6.1 6.5 7.7 -0.2 0.6 -3 -1.7 -6.3 -5.1z"/>
  <path d="M390.1 157.4 c0.7 -1.8 17.1 -30.4 17.5 -30.4 0.6 0 -0.3 1.6 -8.4 16 -6.2 10.9 -9.8 16.8 -9.1 14.4z"/>
  <path d="M452 152 c-3.4 -0.6 -3.4 -0.6 1.5 -1.2 5.5 -0.7 6.6 -0.4 3.8 0.9 -1 0.5 -3.4 0.6 -5.3 0.3z"/>
  <path d="M467.5 148.4 c7.8 -1.7 10 -1.7 5 0.1 -2.2 0.8 -5.6 1.4 -7.5 1.4 -2.9 -0.1 -2.5 -0.3 2.5 -1.5z"/>
  <path d="M247 144.5 c-2.4 -2.5 -4.2 -4.5 -3.9 -4.5 0.3 0 2.5 2 4.9 4.5 2.4 2.5 4.2 4.5 3.9 4.5 -0.3 0 -2.5 -2 -4.9 -4.5z"/>
  <path d="M477.8 146.8 c0.9 -0.9 1.5 -0.9 2.4 0 0.9 0.9 0.7 1.2 -1.2 1.2 -1.9 0 -2.1 -0.3 -1.2 -1.2z"/>
  <path d="M215 146 c0.8 -0.5 2.6 -0.9 4 -0.9 l2.5 0.1 -2.5 0.8 c-1.4 0.4 -3.2 0.8 -4 0.9 -1.3 0.1 -1.3 0 0 -0.9z"/>
  <path d="M484.3 145.3 c0.9 -0.2 2.5 -0.2 3.5 0 0.9 0.3 0.1 0.5 -1.8 0.5 -1.9 0 -2.7 -0.2 -1.7 -0.5z"/>
  <path d="M409.5 123 c0.9 -1.6 1.8 -3 2.1 -3 0.2 0 -0.2 1.4 -1.1 3 -0.9 1.7 -1.8 3 -2.1 3 -0.2 0 0.2 -1.3 1.1 -3z"/>
  <path d="M371 92.5 c0.7 -0.8 1.6 -1.2 2.1 -0.9 1.3 0.8 0.1 2.4 -1.8 2.4 -1.3 0 -1.3 -0.3 -0.3 -1.5z"/>
  <path d="M382 87.6 c0 -0.9 4 -1.3 4.6 -0.5 0.3 0.5 -0.6 0.9 -2 0.9 -1.4 0 -2.6 -0.2 -2.6 -0.4z"/>
  <path d="M389 86 c0.6 -1.1 1.3 -2 1.5 -2 0.3 0 0.5 0.9 0.5 2 0 1.1 -0.7 2 -1.5 2 -1.3 0 -1.4 -0.4 -0.5 -2z"/>
 </g>
</svg>