<?xml version="1.0" standalone="no"?><!DOCTYPE svg PUBLIC "-//W3C//DTD SVG 1.1//EN" "http://www.w3.org/Graphics/SVG/1.1/DTD/svg11.dtd"><svg t="1761638455109" class="icon" viewBox="0 0 1024 1024" version="1.1" xmlns="http://www.w3.org/2000/svg" p-id="10626" xmlns:xlink="http://www.w3.org/1999/xlink" width="200" height="200"><path d="M280.99 474.52c-22.55 30.63-37.08 66.69-40.78 105.63-0.78 8.2-8.83 14.2-17.67 13.13-5.14-0.62-10.37-0.98-15.68-1.07-77.65-1.33-141.07 54.71-142.82 126.36-1.78 72.82 61.66 132.37 140.17 132.37l550.82-0.01c0.28 0 0.56 0.01 0.83 0.01 96.61 0 175.05-71.79 176.08-160.72 0.51-44.37-18.59-84.93-49.78-114.65-31.87-30.36-76.36-49.41-125.49-49.62-10.87-0.05-21.52 0.82-31.85 2.52-7.53 1.24-14.97-2.5-17.73-9.08-35.01-83.56-122.9-142.83-225.81-142.83-83.3 0-156.76 38.84-200.29 97.96z" fill="#E1F5FF" p-id="10627"></path><path d="M481.28 376.56c102.91 0 190.8 59.27 225.81 142.83 2.76 6.58 10.2 10.32 17.73 9.08 10.33-1.7 20.98-2.56 31.85-2.52 49.13 0.21 93.62 19.25 125.49 49.62 45.84-14.21 78.95-57.69 77.81-108.77-1.38-61.54-51.29-109.67-112.4-108.53-4.17 0.08-8.29 0.39-12.34 0.92-6.96 0.92-13.3-4.24-13.91-11.28-8.52-97.99-90.2-174.85-189.72-174.85-80.99 0-150.16 50.9-177.71 122.67-2.17 5.65-8.03 8.86-13.95 7.8-8.13-1.46-16.51-2.2-25.07-2.16-76.51 0.35-138.75 64.04-137.93 141.07 0.12 11.04 1.52 21.78 4.04 32.07 43.54-59.11 117-97.95 200.3-97.95z" fill="#8C9EFF" p-id="10628"></path></svg>